<svg id="圖層_1" data-name="圖層 1" xmlns="http://www.w3.org/2000/svg" viewBox="0 0 464.64 464.64"><defs><style>.cls-1{fill:#a2a1a0;}</style></defs><path class="cls-1" d="M214.27,98.23,202.62,1.88a231.29,231.29,0,0,0-111.57,46l58.15,77.68A134.57,134.57,0,0,1,214.27,98.23Z"/><path class="cls-1" d="M261.37,364.48l18.42,95.3a231.68,231.68,0,0,0,109.55-56.25l-68.71-68.71A135.05,135.05,0,0,1,261.37,364.48Z"/><path class="cls-1" d="M300.58,115.49c17.59-27.13,33.72-55.22,49.89-83.23A231.23,231.23,0,0,0,232.32,0q-3.07,0-6.12.08l11.73,97.08A134.59,134.59,0,0,1,300.58,115.49Z"/><path class="cls-1" d="M232.32,367.61a134.78,134.78,0,0,1-60.61-14.31l-53.14,81.62a231.24,231.24,0,0,0,113.75,29.72,234.3,234.3,0,0,0,24.11-1.24l-18.54-95.91C236,367.56,234.19,367.61,232.32,367.61Z"/><path class="cls-1" d="M115.57,300.7,20.81,328.54A233.17,233.17,0,0,0,98.6,422.31l53-81.41A135.92,135.92,0,0,1,115.57,300.7Z"/><path class="cls-1" d="M464.64,232.32a231.29,231.29,0,0,0-23.58-102.07c-26.31,19.49-53.74,37.64-82.79,52.59a134.8,134.8,0,0,1,9.34,49.48q0,5.15-.38,10.2l96.42,11.24C464.29,246.7,464.64,239.55,464.64,232.32Z"/><path class="cls-1" d="M131.81,141.76,73,63.23A232.12,232.12,0,0,0,7.64,173.05l98.1,11.43A135.33,135.33,0,0,1,131.81,141.76Z"/><path class="cls-1" d="M97,232.32a135.32,135.32,0,0,1,2.28-24.81L2.79,196.26a233.84,233.84,0,0,0,9.3,110.23l93.24-27.4A135,135,0,0,1,97,232.32Z"/><path class="cls-1" d="M363.42,265.85a134.66,134.66,0,0,1-26.31,52l68.8,68.81A231.55,231.55,0,0,0,460.3,277.15Z"/></svg>