<?xml version="1.0" encoding="utf-8"?>
<!-- Generator: Adobe Illustrator 24.2.3, SVG Export Plug-In . SVG Version: 6.00 Build 0)  -->
<svg version="1.1" id="圖層_1" xmlns="http://www.w3.org/2000/svg" xmlns:xlink="http://www.w3.org/1999/xlink" x="0px" y="0px"
	 viewBox="0 0 92.9 91.5" style="enable-background:new 0 0 92.9 91.5;" xml:space="preserve">
<style type="text/css">
	.st0{fill-rule:evenodd;clip-rule:evenodd;fill:#A2A1A0;}
</style>
<g>
	<g>
		<g transform="translate(0.000000, 8.827586)">
			<path class="st0" d="M88.7,57.2l-0.4,1c-6.9,13.3-19,21.5-36.3,21.9c-8.1,0.2-15.8-1.9-20.8-4.2c-10.9-4.9-20-13.9-25-23.6
				C-1,38.5-2.3,19.2,12.6,4.8c0.2,0-1.8,3.1-1.6,3.1l-0.4,1.3C-0.1,42.8,32.9,71.6,65.1,68.3C72.8,67.5,82.7,63.3,88.7,57.2"/>
			<path class="st0" d="M69.3,43.3c8.1,0.1,16.5-3.7,21.5-9c-4.4,11.1-17,18.3-34,16C42.5,48.4,29,34,27.6,19.7
				C26.5,9.3,30.2,3,36.2-4.5c-2.1,4-2.9,7-3.1,8.9C30.8,27,51.2,43.2,69.3,43.3"/>
			<path class="st0" d="M90,15.3c-1.3,2.9-8.5,8.3-11.7,9C65.6,27,57.5,21,53.3,14.1c-0.6-1-1.8-3.8-2-4.5c-1.6-5.6-0.9-14.1,4-18.5
				c-1.5,4.2-1.7,9-0.9,12.2c0.5,1.9,1.9,5.2,3.3,7.3c2.6,3.8,4.3,4.7,7.6,6.8c1.5,0.9,3.1,1.6,3.8,1.8C72.4,20.2,79.1,22.7,90,15.3
				"/>
		</g>
	</g>
</g>
</svg>
