<?xml version="1.0" encoding="UTF-8"?>
<svg width="40px" height="30px" viewBox="0 0 40 30" version="1.1" xmlns="http://www.w3.org/2000/svg" xmlns:xlink="http://www.w3.org/1999/xlink">
    <title>envelope</title>
    <g id="Page-1" stroke="none" stroke-width="1" fill="none" fill-rule="evenodd">
        <g id="Desktop-HD" transform="translate(-696.000000, -3702.000000)" fill="#FFFFFF" fill-rule="nonzero">
            <g id="Group-6" transform="translate(372.000000, 3698.000000)">
                <g id="envelope" transform="translate(324.000000, 4.000000)">
                    <path d="M36.2499739,0 L3.75002609,0 C1.68213452,0 0,1.67957186 0,3.74431308 L0,26.2100248 C0,28.274766 1.68213452,29.9543379 3.75002609,29.9543379 L36.2499739,29.9543379 C38.3178655,29.9543379 40,28.274766 40,26.2100248 L40,3.74431308 C40,1.67957186 38.3178655,0 36.2499739,0 Z M36.2337028,2.55707763 C36.4033656,2.55707763 36.5647705,2.59235181 36.7123288,2.65395626 L20.0000417,17.1689498 L3.28767123,2.65395626 C3.4352295,2.5924354 3.59663438,2.55707763 3.76629719,2.55707763 L36.2337028,2.55707763 Z M36.1904403,27.3972603 L3.62691126,27.3972603 C2.93587515,27.3972603 2.37442922,26.8364614 2.37442922,26.1460352 L2.37442922,5.11415525 L19.0879658,19.5846884 C19.3240559,19.7886989 19.6163659,19.8901608 19.9086758,19.8901608 C20.2009857,19.8901608 20.4932957,19.7887825 20.7293858,19.5846884 L37.4429224,5.11415525 L37.4429224,26.1461188 C37.4429224,26.8364614 36.8814764,27.3972603 36.1904403,27.3972603 L36.1904403,27.3972603 Z" id="Shape"></path>
                </g>
            </g>
        </g>
    </g>
</svg>