<?xml version="1.0" encoding="UTF-8"?>
<svg width="40px" height="41px" viewBox="0 0 40 41" version="1.1" xmlns="http://www.w3.org/2000/svg" xmlns:xlink="http://www.w3.org/1999/xlink">
    <title>telephone</title>
    <g id="Page-1" stroke="none" stroke-width="1" fill="none" fill-rule="evenodd">
        <g id="Desktop-HD" transform="translate(-372.000000, -3702.000000)" fill="#FFFFFF" fill-rule="nonzero">
            <g id="Group-6" transform="translate(372.000000, 3698.000000)">
                <g id="telephone" transform="translate(0.000000, 4.000000)">
                    <path d="M8.16091286,26.6224066 C12.1111203,31.3443983 16.8663071,35.0622407 22.2936929,37.6929461 C24.360083,38.6721992 27.1235685,39.8340249 30.2024066,40.033195 C30.393278,40.0414938 30.5758506,40.0497925 30.766722,40.0497925 C32.833112,40.0497925 34.4928631,39.3360996 35.8455602,37.8672199 C35.8538589,37.8589212 35.8704564,37.8423237 35.8787552,37.8257261 C36.360083,37.2448133 36.9078008,36.7219917 37.4804149,36.1659751 C37.8704564,35.7925311 38.2687967,35.4024896 38.6505394,35.0041494 C40.4181743,33.1618257 40.4181743,30.8215768 38.6339419,29.0373444 L33.64639,24.0497925 C32.799917,23.1701245 31.7874689,22.7053942 30.7252282,22.7053942 C29.6629876,22.7053942 28.6422407,23.1701245 27.7708714,24.0414938 L24.799917,27.0124481 C24.5260581,26.8547718 24.2439004,26.7136929 23.9783402,26.5809129 C23.64639,26.4149378 23.3393361,26.2572614 23.0654772,26.0829876 C20.360083,24.3651452 17.9036515,22.1244813 15.5551037,19.2448133 C14.3683817,17.7427386 13.5717012,16.4813278 13.0156846,15.1950207 C13.7957676,14.4896266 14.5260581,13.7510373 15.2314523,13.0290456 C15.4804149,12.7717842 15.7376763,12.5145228 15.9949378,12.2572614 C16.8912033,11.3609959 17.3725311,10.3236515 17.3725311,9.26970954 C17.3725311,8.21576763 16.8995021,7.17842324 15.9949378,6.28215768 L13.5219087,3.80912863 C13.2314523,3.5186722 12.9575934,3.23651452 12.6754357,2.94605809 C12.1277178,2.38174274 11.5551037,1.80082988 10.9907884,1.2780083 C10.1360166,0.439834025 9.13186722,2.35864809e-15 8.06962656,2.35864809e-15 C7.01568465,2.35864809e-15 6.00323651,0.439834025 5.11526971,1.28630705 L2.01153527,4.39004149 C0.882904564,5.5186722 0.243900415,6.8879668 0.111120332,8.47302905 C-0.0465560166,10.4564315 0.318589212,12.5643154 1.2646473,15.1120332 C2.71692946,19.0539419 4.90780083,22.7136929 8.16091286,26.6224066 Z M2.1360166,8.6473029 C2.23560166,7.54356846 2.65883817,6.62240664 3.45551867,5.82572614 L6.5426556,2.73858921 C7.0239834,2.27385892 7.55510373,2.03319502 8.06962656,2.03319502 C8.57585062,2.03319502 9.09037344,2.27385892 9.56340249,2.75518672 C10.1194191,3.26970954 10.6422407,3.80912863 11.206556,4.38174274 C11.4887137,4.67219917 11.7791701,4.9626556 12.0696266,5.26141079 L14.5426556,7.73443983 C15.0571784,8.24896266 15.3227386,8.77178423 15.3227386,9.28630705 C15.3227386,9.80082988 15.0571784,10.3236515 14.5426556,10.8381743 C14.2853942,11.0954357 14.0281328,11.3609959 13.7708714,11.6182573 C12.9990871,12.3983402 12.2770954,13.1369295 11.4804149,13.8423237 C11.4638174,13.8589212 11.4555187,13.8672199 11.4389212,13.8838174 C10.7501245,14.5726141 10.8580083,15.2282158 11.0239834,15.7261411 C11.0322822,15.7510373 11.0405809,15.7676349 11.0488797,15.7925311 C11.6878838,17.3278008 12.5758506,18.7883817 13.9617427,20.5311203 C16.4513693,23.6016598 19.0737759,25.9834025 21.9617427,27.8174274 C22.3185892,28.0497925 22.700332,28.2323651 23.0571784,28.4149378 C23.3891286,28.5809129 23.6961826,28.7385892 23.9700415,28.9128631 C24.0032365,28.9294606 24.0281328,28.9460581 24.0613278,28.9626556 C24.3351867,29.1037344 24.6007469,29.1701245 24.8663071,29.1701245 C25.5302075,29.1701245 25.9617427,28.746888 26.1028216,28.6058091 L29.206556,25.5020747 C29.6878838,25.0207469 30.2107054,24.7634855 30.7252282,24.7634855 C31.3559336,24.7634855 31.8704564,25.153527 32.1941079,25.5020747 L37.1982573,30.4979253 C38.1941079,31.4937759 38.1858091,32.5726141 37.173361,33.626556 C36.8248133,34 36.459668,34.3568465 36.0696266,34.7302905 C35.4887137,35.2946058 34.8829046,35.8755187 34.3351867,36.5311203 C33.3808299,37.560166 32.2439004,38.0414938 30.7750207,38.0414938 C30.6339419,38.0414938 30.4845643,38.033195 30.3434855,38.0248963 C27.6214938,37.8506224 25.0903734,36.7883817 23.1899585,35.8838174 C18.0281328,33.3858921 13.4970124,29.8423237 9.73767635,25.3443983 C6.64224066,21.6182573 4.55925311,18.1493776 3.18165975,14.4315353 C2.32688797,12.1493776 2.00323651,10.3153527 2.1360166,8.6473029 Z" id="Shape"></path>
                </g>
            </g>
        </g>
    </g>
</svg>