<svg id="Layer_1" data-name="Layer 1" xmlns="http://www.w3.org/2000/svg" viewBox="0 0 2500 1875"><defs><style>.cls-1{fill:#a2a1a0;}</style></defs><path class="cls-1" d="M2151.37,1077.15c-87.41.49-163.09,21.48-226.57,52.74-23.43-46.39-46.87-86.92-50.77-117.19-4.4-35.16-9.77-56.65-4.4-98.63s29.78-101.57,29.78-106.45c-.49-4.4-5.37-25.88-55.66-26.37s-93.75,9.77-98.63,23a559.84,559.84,0,0,0-21,74.71c-8.79,45.89-100.58,208.49-152.83,293.94-17.09-33.2-31.74-62.5-34.67-85.94-4.39-35.15-9.77-56.64-4.39-98.63S1562,886.72,1562,881.84c-.49-4.4-5.37-25.88-55.66-26.37s-93.75,9.76-98.63,22.95-10.25,44.43-21,74.7c-10.26,30.28-132.33,301.76-164.06,372.56-16.12,36.14-30.27,64.94-40.53,84.48s-.49,1.46-1.47,3.41c-8.79,16.61-13.67,25.88-13.67,25.88v.5c-6.83,12.2-14.16,23.92-17.58,23.92-2.44,0-7.33-32.72,1-77.63,18.06-94.25,62-241.22,61.52-246.59,0-2.44,8.3-28.32-28.32-41.5-35.65-13.18-48.34,8.79-51.27,8.79s-5.37,7.81-5.37,7.81,39.55-165.52-75.69-165.52c-72.26,0-171.87,78.61-221.19,150.39-31.25,17.09-97.65,53.22-168,91.8-26.85,14.64-54.68,30.27-81.05,44.43l-5.37-5.87C436,1081.05,177.73,975.59,188.48,775.39c3.9-72.75,29.29-264.65,496.1-497.07,382.32-190.43,688.47-138.18,741.69-22,75.68,166-163.57,474.61-561,519-151.37,17.09-231-41.5-251-63.48-21-22.95-23.92-23.92-31.74-19.53-12.69,6.84-4.88,27.35,0,39.55,11.72,30.77,60.55,85.45,143.56,112.8,72.75,23.92,250.49,37.11,465.33-45.9,240.72-93.26,428.71-352.05,373.54-568.36C1508.79,10.25,1143.56-62,798.34,60.55,592.77,133.79,370.12,248.05,210,398,19.53,575.68-10.74,731,2,795.41c44.44,230,361.33,379.88,488.28,490.72-6.34,3.42-12.2,6.83-17.57,9.77-63.48,31.24-305.18,157.71-365.73,291.5-68.36,151.36,10.75,260.26,63.48,274.9,163.09,45.41,330.08-36.13,420.41-170.41,89.84-134.27,79.1-308.59,37.6-388.18l-1.47-2.93,49.8-29.3c32.23-19,64-36.62,91.8-51.76-15.62,42.48-26.86,92.78-32.71,166C729,1471.68,764.16,1583,810.55,1627c20.5,19,44.92,19.53,60.06,19.53,53.71,0,78.12-44.44,105-97.66,33.2-64.94,62.5-140.13,62.5-140.13s-36.63,203.61,63.47,203.61c36.62,0,73.24-47.36,89.85-71.78v.49s1-1.46,2.93-4.88q3.06-4.55,5.86-9.27v-1c14.64-25.39,47.36-83.5,96.19-179.69,63-124,123.53-279.3,123.53-279.3s5.86,38.09,23.93,100.59c10.73,37.11,34.17,77.64,52.24,117.19-14.65,20.51-23.44,32.23-23.44,32.23l.49.49c-11.71,15.62-24.9,32.23-38.57,48.83-49.8,59.57-109.37,127.44-117.19,147-9.27,23-7.32,40,10.75,53.71,13.18,9.77,36.62,11.72,61.52,9.77,44.92-2.93,76.17-14.16,91.8-21a318.11,318.11,0,0,0,79.1-41.5c48.83-36.13,78.61-87.4,75.68-155.76-1.46-37.6-13.67-74.71-28.81-109.86,4.4-6.35,8.8-12.7,13.19-19.54,77.14-112.79,136.71-236.81,136.71-236.81s5.86,38.08,23.93,100.58c9.27,31.74,27.83,66.41,44.43,100.59-72.26,59.09-117.67,127.45-133.3,172.37-28.81,83-6.34,120.6,36.14,129.39,19,3.91,46.38-4.88,66.89-13.67a303.05,303.05,0,0,0,84.47-43.46c48.83-36.13,95.71-86.42,93.26-154.29-1.46-31.25-9.76-62-21-91.31,61.52-25.39,141.11-40,242.19-27.83,217.28,25.39,260.25,161.13,251.95,217.77s-53.71,87.89-68.85,97.66c-15.13,9.27-20,12.7-18.55,19.53,2,10.26,8.79,9.76,22,7.81,18.07-2.93,114.26-46.38,118.16-150.87,5.86-134.3-121.58-280.78-347.65-279.32ZM475.59,1642.09c-71.78,78.61-172.86,108.4-215.82,83-46.39-26.86-28.33-142.58,60.05-226.08,53.72-50.78,123.54-97.65,169.44-126.46,10.25-6.35,25.88-15.62,44.43-26.86a51.9,51.9,0,0,1,4.88-2.93c3.42-2,7.33-4.39,11.23-6.83,32.72,119.14,1.47,223.63-74.21,306.15Zm524.9-356.93c-24.9,61-77.64,217.77-109.38,209-27.35-7.32-43.94-126-5.37-243.16,19.53-59.09,61-129.4,85.45-156.75,39.55-43.94,82.52-58.59,93.26-40.52C1077.15,1077.15,1016.11,1247.07,1000.49,1285.16Zm433.1,207c-10.74,5.37-20.5,9.27-24.9,6.35-3.42-2,4.39-9.28,4.39-9.28s54.2-58.1,75.68-85c12.21-15.62,26.86-33.68,42.48-54.2V1356c0,70.31-67.37,117.18-97.65,136.23Zm334-76.17c-7.81-5.86-6.83-23.93,19.53-80.57,10.26-22.46,33.7-60.06,74.22-95.7,4.89,14.64,7.82,28.8,7.33,42C1868.16,1369.63,1805.66,1402.34,1767.57,1416Z"/></svg>