<?xml version="1.0" encoding="utf-8"?>
<!-- Generator: Adobe Illustrator 24.2.3, SVG Export Plug-In . SVG Version: 6.00 Build 0)  -->
<svg version="1.1" id="Capa_1" xmlns="http://www.w3.org/2000/svg" xmlns:xlink="http://www.w3.org/1999/xlink" x="0px" y="0px"
	 viewBox="0 0 512 512" style="enable-background:new 0 0 512 512;" xml:space="preserve">
<style type="text/css">
	.st0{fill:#A2A1A0;}
</style>
<g>
	<g>
		<path class="st0" d="M496,160H16c-8.8,0-16,7.2-16,16s7.2,16,16,16h480c8.8,0,16-7.2,16-16S504.9,160,496,160z"/>
	</g>
</g>
<g>
	<g>
		<path class="st0" d="M396,165.4l-128-144c-6.1-6.8-17.9-6.8-23.9,0l-128,144c-5.9,6.6-5.3,16.7,1.3,22.6
			c6.6,5.9,16.7,5.3,22.6-1.3L256,56.1l116,130.6c3.2,3.6,7.6,5.4,12,5.4c3.8,0,7.6-1.3,10.6-4C401.2,182.1,401.9,172,396,165.4z"/>
	</g>
</g>
<g>
	<g>
		<path class="st0" d="M508,165.5l-112-128c-2.6-2.9-6.1-4.9-10-5.3l-128-16c-1.2-0.1-2.4-0.1-3.6,0l-160,16
			c-4.9,0.5-9.3,3.2-12,7.4l-80,128c-3.6,5.7-3.2,13.1,1,18.4l240,304c3,3.8,7.7,6.1,12.6,6.1s9.5-2.2,12.5-6.1l240-304
			C513.3,179.9,513.1,171.3,508,165.5z M256,454.2L35.5,174.9l69.9-111.8l150.4-15l120.2,15l99.2,113.4L256,454.2z"/>
	</g>
</g>
<g>
	<g>
		<path class="st0" d="M270.8,473.8l-128-304c-3.5-8.2-12.9-11.9-21-8.5c-8.2,3.4-12,12.8-8.5,21l128,304c2.6,6.1,8.5,9.8,14.8,9.8
			c2,0,4.2-0.4,6.2-1.2C270.4,491.3,274.2,482,270.8,473.8z"/>
	</g>
</g>
<g>
	<g>
		<path class="st0" d="M390.2,161.2c-8.2-3.5-17.5,0.4-21,8.5l-128,304c-3.4,8.2,0.4,17.5,8.5,21c2,0.8,4.1,1.2,6.2,1.2
			c6.2,0,12.2-3.7,14.8-9.8l128-304C402.2,174,398.4,164.7,390.2,161.2z"/>
	</g>
</g>
<g>
	<g>
		<path class="st0" d="M143.5,172.1l-32-128c-2.1-8.6-10.9-13.8-19.4-11.6c-8.6,2.1-13.8,10.8-11.6,19.4l32,128
			c1.8,7.3,8.3,12.1,15.5,12.1c1.3,0,2.6-0.2,3.9-0.5C140.5,189.4,145.7,180.7,143.5,172.1z"/>
	</g>
</g>
<g>
	<g>
		<path class="st0" d="M384,32c-8.8,0-16,7.2-16,16v128c0,8.8,7.2,16,16,16s16-7.2,16-16V48C400,39.2,392.9,32,384,32z"/>
	</g>
</g>
</svg>
